<?xml version="1.0" standalone="no"?>
<!DOCTYPE svg PUBLIC "-//W3C//DTD SVG 20010904//EN"
 "http://www.w3.org/TR/2001/REC-SVG-20010904/DTD/svg10.dtd">
<svg version="1.0" xmlns="http://www.w3.org/2000/svg"
 width="512.000000pt" height="512.000000pt" viewBox="0 0 512.000000 512.000000"
 preserveAspectRatio="xMidYMid meet">

<g transform="translate(0.000000,512.000000) scale(0.100000,-0.100000)"
fill="#1E3190" stroke="none">
<path d="M1720 5113 c-14 -2 -57 -11 -97 -18 -39 -8 -152 -19 -250 -25 -134
-7 -200 -16 -268 -34 -506 -138 -901 -542 -1030 -1054 -65 -258 -78 -547 -72
-1589 3 -517 9 -848 16 -918 41 -382 129 -625 317 -875 250 -332 605 -505
1184 -577 130 -16 236 -18 1015 -18 637 0 909 4 1015 13 477 43 704 118 969
317 282 212 446 489 525 887 59 291 76 603 76 1368 0 1088 -38 1413 -202 1720
-250 470 -631 691 -1368 791 -83 12 -1773 23 -1830 12z m-1156 -1587 c123 -64
232 -137 384 -254 l134 -102 55 50 c103 94 272 179 409 206 110 21 264 18 360
-6 116 -29 284 -116 375 -193 143 -122 249 -300 283 -477 l13 -65 13 60 c35
166 104 297 219 418 128 134 277 217 450 252 113 23 304 16 411 -15 103 -30
235 -100 319 -171 39 -32 74 -59 78 -59 5 0 19 10 33 21 101 81 443 297 529
333 86 37 91 35 91 -23 0 -45 -2 -49 -27 -55 -45 -12 -209 -111 -450 -274
l-122 -82 44 -71 c84 -137 125 -279 125 -441 0 -250 -98 -479 -282 -654 -179
-172 -478 -263 -724 -220 -201 35 -332 103 -480 250 -89 90 -106 113 -152 206
-29 59 -62 146 -76 199 l-23 94 -8 -49 c-11 -78 -62 -205 -117 -295 -106 -172
-273 -304 -469 -370 -84 -29 -109 -33 -234 -37 -200 -6 -323 24 -490 121 -81
47 -214 176 -270 262 -184 281 -191 638 -20 923 25 41 45 78 45 81 0 8 -18 21
-226 167 -130 91 -287 188 -331 205 -21 8 -21 10 -8 36 8 15 15 38 15 51 0 33
28 28 124 -22z m2189 -1644 c36 -18 87 -52 114 -76 l47 -43 -89 -154 c-48 -85
-124 -217 -167 -294 -43 -77 -82 -141 -86 -143 -7 -2 -79 106 -266 401 -81
128 -106 171 -106 183 0 15 63 60 140 100 142 72 298 82 413 26z"/>
<path d="M1786 3075 c-179 -46 -335 -202 -375 -375 -17 -75 -13 -201 9 -272
78 -254 351 -409 605 -343 329 86 485 465 312 756 l-26 42 5 -39 c10 -80 -52
-148 -133 -148 -83 0 -133 51 -133 136 0 83 70 147 147 135 18 -3 33 -4 33 -1
0 11 -112 76 -164 94 -80 27 -204 34 -280 15z"/>
<path d="M3215 3079 c-75 -15 -187 -74 -244 -129 -103 -98 -150 -202 -158
-348 -5 -83 -3 -102 22 -178 119 -364 565 -473 836 -204 108 108 156 236 146
390 -5 88 -25 159 -61 220 l-21 35 -5 -41 c-14 -103 -105 -158 -193 -115 -52
25 -77 65 -77 123 0 82 71 147 147 135 29 -5 33 -4 23 8 -19 23 -96 65 -158
86 -68 24 -188 32 -257 18z"/>
</g>
</svg>
